<?xml version="1.0" encoding="UTF-8" standalone="no"?>
<!-- Created with Inkscape (http://www.inkscape.org/) -->

<svg
   width="446.42096mm"
   height="76.699738mm"
   viewBox="0 0 446.42096 76.699738"
   version="1.1"
   id="svg7202"
   xmlns:inkscape="http://www.inkscape.org/namespaces/inkscape"
   xmlns:sodipodi="http://sodipodi.sourceforge.net/DTD/sodipodi-0.dtd"
   xmlns="http://www.w3.org/2000/svg"
   xmlns:svg="http://www.w3.org/2000/svg">
  <sodipodi:namedview
     id="namedview7204"
     pagecolor="#ffffff"
     bordercolor="#000000"
     borderopacity="0.25"
     inkscape:showpageshadow="2"
     inkscape:pageopacity="0.0"
     inkscape:pagecheckerboard="0"
     inkscape:deskcolor="#d1d1d1"
     inkscape:document-units="mm"
     showgrid="false" />
  <defs
     id="defs7199" />
  <g
     inkscape:label="Yarn Layer"
     inkscape:groupmode="layer"
     id="layer1"
     transform="translate(-27.093764,-65.68329)">
    <g
       id="g411"
       transform="matrix(0.1511328,0,0,0.1511328,12.546779,61.706823)"
       style="stroke-width:2.33422"
       inkscape:label="Yarn Group">
      <path
         d="M 525,411.31 H 402.5 c -12.215,0 -22.418,-8.418 -25.332,-19.738 2.625,-0.35938 5.2578,-0.69922 7.832,-1.1992 v -360.71 c -8.6016,-1.6641 -17.387,-2.5117 -26.25,-2.9297 v 314.59 h -17.5 v -314.57 c -8.918,0.42188 -17.703,1.3398 -26.25,2.9922 v 22.812 h -17.5 v -18.508 c -9.082,2.7109 -17.805,6.2227 -26.25,10.246 v 331.62 c 8.4609,4.0234 17.238,7.3867 26.25,10.09 V 70.0553 H 315 v 320.32 c 8.6016,1.6797 17.387,2.5547 26.25,2.9922 v -34.562 h 17.5 v 26.25 c 0,24.125 19.625,43.75 43.75,43.75 H 525 c 9.6523,0 17.5,7.8477 17.5,17.5 0,9.6523 -7.8477,17.5 -17.5,17.5 H 262.5 c -19.301,0 -35,15.699 -35,35 0,19.301 15.699,35 35,35 H 525 v -17.5 H 262.5 c -9.6523,0 -17.5,-7.8477 -17.5,-17.5 0,-9.6523 7.8477,-17.5 17.5,-17.5 H 525 c 19.301,0 35,-15.699 35,-35 0,-19.305 -15.699,-35 -35,-35 z"
         id="path343"
         style="fill:#3eadcf;fill-opacity:1;stroke-width:2.33422" />
      <path
         d="M 542.5,516.31 H 560 v 17.5 h -17.5 z"
         id="path345"
         style="fill:#3eadcf;fill-opacity:1;stroke-width:2.33422" />
      <path
         d="m 253.75,224.36 -139.27,84.559 c -11.234,6.8359 -18.227,19.242 -18.227,32.395 0,4.8281 3.9219,8.75 8.75,8.75 4.8281,0 8.75,-3.9219 8.75,-8.75 V 327.4 l 140,-77.5 z"
         id="path347"
         style="display:inline;fill:#4cd5ff;fill-opacity:1;stroke-width:2.33422"
         inkscape:label="Stick Tail" />
      <path
         d="M 253.75,114.08 211.496,89.685 c -5.7852,6.6484 -11.105,13.695 -15.898,21.121 l 58.152,33.582 z"
         id="path349"
         style="fill:#3eadcf;fill-opacity:1;stroke-width:2.33422" />
      <path
         d="m 253.75,269.91 -61.617,34.117 c 5.6523,9.4766 12.074,18.34 19.199,26.52 l 42.418,-24.5 z"
         id="path351"
         style="fill:#3eadcf;fill-opacity:1;stroke-width:2.33422" />
      <path
         d="m 253.75,63.559 -8.0156,-4.6289 c -7.7188,5.3477 -14.945,11.324 -21.754,17.754 l 29.77,17.188 z"
         id="path353"
         style="fill:#3eadcf;fill-opacity:1;stroke-width:2.33422" />
      <path
         d="m 245,159.55 -58.18,-33.59 c -4.0352,7.7969 -7.4805,15.926 -10.379,24.316 l 42.309,24.43 z"
         id="path355"
         style="fill:#3eadcf;fill-opacity:1;stroke-width:2.33422" />
      <path
         d="m 454.24,58.949 -7.9883,4.6094 v 23.449 l 24.719,-15.008 c -5.3555,-4.6875 -10.938,-9.043 -16.73,-13.051 z"
         id="path357"
         style="fill:#3eadcf;fill-opacity:1;stroke-width:2.33422" />
      <path
         d="m 253.75,356.56 v -30.309 l -29.871,17.246 c 6.8516,6.457 14.148,12.371 21.867,17.684 z"
         id="path359"
         style="fill:#3eadcf;fill-opacity:1;stroke-width:2.33422" />
      <path
         d="m 201.25,184.81 -29.836,-17.23 c -2.1523,9.0195 -3.6562,18.277 -4.4102,27.754 l 7.9961,4.6328 z"
         id="path361"
         style="fill:#3eadcf;fill-opacity:1;stroke-width:2.33422" />
      <path
         d="m 253.75,203.89 v -29.191 l -86.879,50.164 c 0.77734,9.7812 2.3789,19.434 4.6914,28.926 z"
         id="path363"
         style="fill:#3eadcf;fill-opacity:1;stroke-width:2.33422" />
      <path
         d="m 528.68,167.53 -13.395,7.7344 -8.75,-15.156 17.195,-9.9219 c -2.8359,-8.2422 -6.3008,-16.25 -10.289,-24.02 l -67.188,37.18 v 31.562 l 46.48,-26.836 8.75,15.156 -55.23,31.891 v 30.309 l 86.836,-50.137 c -0.75391,-9.3789 -2.25,-18.652 -4.4102,-27.762 z"
         id="path365"
         style="fill:#3eadcf;fill-opacity:1;stroke-width:2.33422" />
      <path
         d="m 455,260.58 58.18,33.59 c 4.0352,-7.7969 7.4805,-15.926 10.379,-24.316 L 481.25,245.428 Z"
         id="path367"
         style="fill:#3eadcf;fill-opacity:1;stroke-width:2.33422" />
      <path
         d="m 533.01,224.8 -8.0078,-4.6289 -26.25,15.156 29.836,17.23 c 2.1523,-9.0352 3.6602,-18.281 4.4219,-27.758 z"
         id="path369"
         style="fill:#3eadcf;fill-opacity:1;stroke-width:2.33422" />
      <path
         d="m 585.16,26.312 c -3.4141,0 -6.7461,0.92578 -9.6523,2.7031 l -129.25,78.461 v 35.867 l 147.91,-81.875 c 5.9141,-3.2734 9.5898,-9.5117 9.5898,-16.266 0,-10.555 -8.3398,-18.891 -18.594,-18.891 z"
         id="path371"
         inkscape:label="Stick Head"
         style="fill:#4cd5ff;fill-opacity:1;stroke-width:2.33422" />
      <path
         d="m 504.4,309.31 -58.152,-33.574 v 30.309 l 42.254,24.395 c 5.7852,-6.6562 11.105,-13.691 15.898,-21.129 z"
         id="path373"
         style="fill:#3eadcf;fill-opacity:1;stroke-width:2.33422" />
      <path
         d="M 428.75,44.18 C 420.2539,40.1448 411.52,36.6566 402.5,33.969 v 352.11 c 9.082,-2.7109 17.805,-6.2227 26.25,-10.246 z"
         id="path375"
         style="fill:#3eadcf;fill-opacity:1;stroke-width:2.33422" />
      <path
         d="m 476.01,343.44 -29.758,-17.184 v 30.309 l 8.0156,4.6289 c 7.7188,-5.3477 14.945,-11.324 21.742,-17.754 z"
         id="path377"
         style="fill:#3eadcf;fill-opacity:1;stroke-width:2.33422" />
    </g>
  </g>
  <g
     inkscape:groupmode="layer"
     id="layer2"
     inkscape:label="Text Layer"
     style="fill:#3eadcf;fill-opacity:1"
     transform="translate(-27.093764,-65.68329)">
    <g
       aria-label="GANDA YARN"
       id="text7405"
       style="font-size:50.8002px;font-family:Heavitas;-inkscape-font-specification:Heavitas;fill:#3eadcf;fill-opacity:1;stroke-width:0.617597">
      <path
         d="m 136.40454,122.73244 q -4.06401,0 -7.62003,-1.52401 -3.55601,-1.524 -6.24842,-4.11481 -2.64161,-2.59081 -4.21642,-6.09603 -1.524,-3.50521 -1.524,-7.46763 0,-3.962412 1.524,-7.467626 1.57481,-3.505214 4.21642,-6.096025 2.69241,-2.64161 6.24842,-4.165616 3.55602,-1.524006 7.62003,-1.524006 5.58803,0 9.70284,2.286009 4.16562,2.286009 6.75643,6.299225 0.254,0.406402 0.1016,0.965204 -0.1016,0.508002 -0.508,0.762003 l -6.09603,3.911615 q -0.4064,0.254001 -0.9144,0.203201 -0.508,-0.1016 -0.8636,-0.508002 -1.57481,-1.930408 -3.55602,-3.098812 -1.9304,-1.168405 -4.62282,-1.168405 -1.9304,0 -3.65761,0.812803 -1.67641,0.762003 -2.94641,2.082809 -1.27001,1.320805 -2.03201,3.098812 -0.7112,1.727211 -0.7112,3.606811 0,1.93041 0.7112,3.65762 0.762,1.7272 2.03201,3.04801 1.27,1.27 2.94641,2.08281 1.72721,0.762 3.65761,0.762 1.93041,0 3.81002,-0.7112 1.87961,-0.7112 2.99721,-2.33681 0.254,-0.4064 0.0508,-0.7112 -0.2032,-0.35561 -0.7112,-0.35561 h -5.84202 q -0.50801,0 -0.86361,-0.3556 -0.3556,-0.3556 -0.3556,-0.8636 v -6.04522 q 0,-0.50801 0.3556,-0.86361 0.3556,-0.3556 0.86361,-0.3556 h 17.47527 q 0.508,0 0.8636,0.3556 0.4064,0.3048 0.4572,0.86361 0.1016,0.8636 0.1016,2.1336 0,1.21921 -0.1524,2.54001 -0.3556,3.50522 -1.98121,6.50243 -1.6256,2.99721 -4.21641,5.18162 -2.54001,2.18441 -5.84203,3.45441 -3.30201,1.21921 -7.01043,1.21921 z"
         id="path7480"
         style="fill:#3eadcf;fill-opacity:1" />
      <path
         d="m 169.72957,86.054694 q 0.2032,-0.457202 0.6604,-0.762003 0.508,-0.355601 1.0668,-0.355601 h 7.11203 q 0.508,0 0.9652,0.355601 0.50801,0.304801 0.71121,0.762003 l 14.83366,34.544136 q 0.2032,0.4572 -0.1016,0.9652 -0.254,0.50801 -1.06681,0.50801 h -8.68683 q -0.5588,0 -1.06681,-0.3048 -0.4572,-0.35561 -0.7112,-0.81281 l -1.37161,-3.04801 q -0.254,-0.4572 -0.762,-0.762 -0.4572,-0.3556 -0.9652,-0.3556 h -10.71884 q -0.55881,0 -1.06681,0.3556 -0.4572,0.3048 -0.6604,0.762 l -1.42241,3.04801 q -0.2032,0.4572 -0.7112,0.81281 -0.4572,0.3048 -0.9652,0.3048 h -8.73764 q -0.254,0 -0.508,-0.1016 -0.3048,-0.1016 -0.4572,-0.3048 -0.2032,-0.20321 -0.254,-0.50801 -0.0508,-0.3048 0.1524,-0.7112 z m 2.99721,22.098086 h 4.52122 q 0.508,0 0.7112,-0.3048 0.254,-0.3556 0,-0.8128 -0.508,-1.27001 -1.21921,-2.94641 -0.7112,-1.72721 -1.3208,-3.20042 -0.2032,-0.4572 -0.4572,-0.4572 -0.254,0 -0.45721,0.4572 l -2.54001,6.14683 q -0.2032,0.4572 0,0.8128 0.20321,0.3048 0.76201,0.3048 z"
         id="path7482"
         style="fill:#3eadcf;fill-opacity:1" />
      <path
         d="m 233.58541,86.105494 v 34.747336 q 0,0.508 -0.3556,0.86361 -0.3556,0.3556 -0.8636,0.3556 h -7.51843 q -0.508,0 -1.06681,-0.3048 -0.5588,-0.30481 -0.8636,-0.71121 l -13.25885,-18.64367 q -0.3048,-0.4064 -0.66041,-0.3048 -0.3048,0.0508 -0.3048,0.5588 v 18.18647 q 0,0.508 -0.3556,0.86361 -0.3556,0.3556 -0.8636,0.3556 h -7.56923 q -0.508,0 -0.8636,-0.3556 -0.35561,-0.35561 -0.35561,-0.86361 V 86.105494 q 0,-0.508002 0.35561,-0.863603 0.3556,-0.355602 0.8636,-0.355602 h 7.62003 q 0.508,0 1.0668,0.304802 0.55881,0.254001 0.86361,0.660402 l 13.20805,18.643677 q 0.3048,0.4064 0.6096,0.3556 0.3556,-0.0508 0.3556,-0.5588 V 86.105494 q 0,-0.508002 0.3556,-0.863603 0.35561,-0.355602 0.86361,-0.355602 h 7.51843 q 0.508,0 0.8636,0.355602 0.3556,0.355601 0.3556,0.863603 z"
         id="path7484"
         style="fill:#3eadcf;fill-opacity:1" />
      <path
         d="M 241.30701,120.85283 V 86.105494 q 0,-0.508002 0.3556,-0.863603 0.3556,-0.355602 0.8636,-0.355602 h 13.86846 q 7.97563,0 13.05565,4.673619 2.74321,2.54001 4.16562,6.045224 1.4224,3.505214 1.4224,7.874028 0,4.36882 -1.4224,7.92483 -1.42241,3.50522 -4.16562,6.04523 -2.54001,2.28601 -5.84202,3.45441 -3.25122,1.16841 -7.21363,1.16841 h -13.86846 q -0.508,0 -0.8636,-0.3556 -0.3556,-0.35561 -0.3556,-0.86361 z m 11.27764,-8.12803 h 3.81002 q 1.4224,0 2.94641,-0.3556 1.52401,-0.3556 2.74321,-1.32081 1.2192,-1.016 1.98121,-2.79401 0.8128,-1.82881 0.8128,-4.72442 0,-2.89561 -0.8128,-4.673615 -0.76201,-1.828808 -2.03201,-2.794011 -1.21921,-1.016004 -2.74321,-1.371606 -1.47321,-0.355601 -2.89561,-0.355601 h -3.81002 q -0.508,0 -0.8636,0.355601 -0.3556,0.355602 -0.3556,0.863604 v 15.951258 q 0,0.50801 0.3556,0.86361 0.3556,0.3556 0.8636,0.3556 z"
         id="path7486"
         style="fill:#3eadcf;fill-opacity:1" />
      <path
         d="m 288.1448,86.054694 q 0.2032,-0.457202 0.6604,-0.762003 0.508,-0.355601 1.0668,-0.355601 h 7.11203 q 0.508,0 0.9652,0.355601 0.50801,0.304801 0.71121,0.762003 l 14.83366,34.544136 q 0.2032,0.4572 -0.1016,0.9652 -0.25401,0.50801 -1.06681,0.50801 h -8.68683 q -0.5588,0 -1.06681,-0.3048 -0.4572,-0.35561 -0.7112,-0.81281 l -1.37161,-3.04801 q -0.254,-0.4572 -0.762,-0.762 -0.4572,-0.3556 -0.9652,-0.3556 H 288.0432 q -0.55881,0 -1.06681,0.3556 -0.4572,0.3048 -0.6604,0.762 l -1.42241,3.04801 q -0.2032,0.4572 -0.7112,0.81281 -0.4572,0.3048 -0.9652,0.3048 h -8.73764 q -0.254,0 -0.508,-0.1016 -0.3048,-0.1016 -0.4572,-0.3048 -0.2032,-0.20321 -0.254,-0.50801 -0.0508,-0.3048 0.1524,-0.7112 z m 2.99721,22.098086 h 4.52122 q 0.508,0 0.7112,-0.3048 0.254,-0.3556 0,-0.8128 -0.508,-1.27001 -1.21921,-2.94641 -0.7112,-1.72721 -1.3208,-3.20042 -0.2032,-0.4572 -0.4572,-0.4572 -0.254,0 -0.45721,0.4572 l -2.54001,6.14683 q -0.2032,0.4572 0,0.8128 0.20321,0.3048 0.76201,0.3048 z"
         id="path7488"
         style="fill:#3eadcf;fill-opacity:1" />
      <path
         d="m 343.16146,106.98414 c -2.03201,-3.48828 -4.11481,-6.90883 -6.24842,-10.261644 -2.09974,-3.352813 -4.19948,-6.807227 -6.29923,-10.363241 -0.16933,-0.304801 -0.2032,-0.609602 -0.1016,-0.914403 0.1016,-0.338668 0.32174,-0.508002 0.66041,-0.508002 h 9.04243 c 0.33867,0 0.67734,0.1016 1.01601,0.304801 0.37253,0.203201 0.64347,0.457202 0.8128,0.762003 l 6.24842,10.871243 c 0,0 -5.1314,10.109393 -5.13082,10.109243 z"
         id="path7490"
         sodipodi:nodetypes="cccccssccc"
         style="fill:#3eadcf;fill-opacity:1" />
      <path
         d="m 375.06397,86.054694 q 0.2032,-0.457202 0.6604,-0.762003 0.508,-0.355601 1.06681,-0.355601 h 7.11203 q 0.508,0 0.9652,0.355601 0.508,0.304801 0.7112,0.762003 l 14.83366,34.544136 q 0.2032,0.4572 -0.1016,0.9652 -0.254,0.50801 -1.0668,0.50801 h -8.68684 q -0.5588,0 -1.0668,-0.3048 -0.4572,-0.35561 -0.71121,-0.81281 l -1.3716,-3.04801 q -0.254,-0.4572 -0.762,-0.762 -0.45721,-0.3556 -0.96521,-0.3556 h -10.71884 q -0.5588,0 -1.0668,0.3556 -0.45721,0.3048 -0.66041,0.762 l -1.4224,3.04801 q -0.2032,0.4572 -0.71121,0.81281 -0.4572,0.3048 -0.9652,0.3048 h -8.73763 q -0.25401,0 -0.50801,-0.1016 -0.3048,-0.1016 -0.4572,-0.3048 -0.2032,-0.20321 -0.254,-0.50801 -0.0508,-0.3048 0.1524,-0.7112 z m 2.99721,22.098086 h 4.52122 q 0.508,0 0.7112,-0.3048 0.254,-0.3556 0,-0.8128 -0.508,-1.27001 -1.2192,-2.94641 -0.7112,-1.72721 -1.32081,-3.20042 -0.2032,-0.4572 -0.4572,-0.4572 -0.254,0 -0.4572,0.4572 l -2.54001,6.14683 q -0.2032,0.4572 0,0.8128 0.2032,0.3048 0.762,0.3048 z"
         id="path7492"
         style="fill:#3eadcf;fill-opacity:1" />
      <path
         d="m 410.82732,122.07204 h -7.56923 q -0.508,0 -0.8636,-0.3556 -0.35561,-0.35561 -0.35561,-0.86361 V 86.105494 q 0,-0.508002 0.35561,-0.863603 0.3556,-0.355602 0.8636,-0.355602 h 15.79886 q 2.94641,0 5.43562,1.016004 2.48921,0.965204 4.21642,2.743211 1.77801,1.778007 2.74321,4.216417 1.016,2.43841 1.016,5.384821 0,1.625607 -0.4064,3.251218 -0.3556,1.5748 -1.0668,2.99721 -0.7112,1.4224 -1.67641,2.59081 -0.9652,1.1176 -2.18441,1.8796 -0.4064,0.30481 -0.5588,0.76201 -0.1016,0.4064 0.2032,0.8128 1.93041,2.54001 4.06402,5.23242 2.13361,2.69241 3.81001,4.92762 0.3048,0.4064 0.1524,0.9144 -0.1524,0.45721 -0.6604,0.45721 h -9.44884 q -0.508,0 -1.1176,-0.254 -0.5588,-0.30481 -0.8636,-0.71121 -1.62561,-2.13361 -3.25122,-4.31801 -1.5748,-2.18441 -3.14961,-4.41962 -0.3048,-0.4064 -0.8636,-0.6604 -0.5588,-0.30481 -1.06681,-0.30481 h -1.1176 q -0.508,0 -0.8636,0.35561 -0.35561,0.3556 -0.35561,0.8636 v 8.22963 q 0,0.508 -0.3556,0.86361 -0.3556,0.3556 -0.8636,0.3556 z m 2.43841,-20.01528 h 5.38482 q 0.6096,0 1.27001,-0.2032 0.6604,-0.254 1.2192,-0.71121 0.5588,-0.508 0.9144,-1.219201 0.3556,-0.711203 0.3556,-1.676407 0,-0.508002 -0.2032,-1.168404 -0.1524,-0.711203 -0.6096,-1.320806 -0.4064,-0.660402 -1.1684,-1.066804 -0.71121,-0.457202 -1.77801,-0.457202 h -5.38482 q -0.508,0 -0.8636,0.355602 -0.35561,0.355601 -0.35561,0.863603 v 5.384819 q 0,0.508 0.35561,0.86361 0.3556,0.3556 0.8636,0.3556 z"
         id="path7494"
         style="fill:#3eadcf;fill-opacity:1" />
      <path
         d="m 473.51473,86.105494 v 34.747336 q 0,0.508 -0.3556,0.86361 -0.3556,0.3556 -0.8636,0.3556 h -7.51843 q -0.508,0 -1.06681,-0.3048 -0.5588,-0.30481 -0.8636,-0.71121 l -13.25885,-18.64367 q -0.3048,-0.4064 -0.6604,-0.3048 -0.30481,0.0508 -0.30481,0.5588 v 18.18647 q 0,0.508 -0.3556,0.86361 -0.3556,0.3556 -0.8636,0.3556 h -7.56923 q -0.508,0 -0.8636,-0.3556 -0.35561,-0.35561 -0.35561,-0.86361 V 86.105494 q 0,-0.508002 0.35561,-0.863603 0.3556,-0.355602 0.8636,-0.355602 h 7.62003 q 0.508,0 1.0668,0.304802 0.55881,0.254001 0.86361,0.660402 l 13.20805,18.643677 q 0.3048,0.4064 0.6096,0.3556 0.3556,-0.0508 0.3556,-0.5588 V 86.105494 q 0,-0.508002 0.35561,-0.863603 0.3556,-0.355602 0.8636,-0.355602 h 7.51843 q 0.508,0 0.8636,0.355602 0.3556,0.355601 0.3556,0.863603 z"
         id="path7496"
         style="fill:#3eadcf;fill-opacity:1" />
    </g>
  </g>
  <g
     inkscape:groupmode="layer"
     id="layer3"
     inkscape:label="Yarn Stick Layer"
     transform="translate(-27.093764,-65.68329)">
    <g
       id="g7775"
       transform="matrix(0.05711205,-0.0185809,0.0185809,0.05711205,326.62183,93.895239)"
       inkscape:label="Yarn Stick"
       style="fill:#4cd5ff;fill-opacity:1;stroke-width:5.8739">
      <path
         d="M 341.57,266.44 182.98,441.73 c 0.5,2.4336 0.76953,4.9336 0.76953,7.4805 v 2.8359 c 0,9.8867 -3.8516,19.18 -10.84,26.172 l -17.973,17.973 -12.371,-12.371 17.973,-17.973 c 3.6289,-3.6328 5.7109,-8.6641 5.7109,-13.801 v -2.8359 c 0,-5.1367 -2.082,-10.168 -5.7148,-13.797 l -0.94531,-0.94531 c -3.6289,-3.6328 -8.6602,-5.7148 -13.797,-5.7148 -6.2812,0 -12.223,3.0547 -15.883,8.1719 l -27.406,38.367 c -4.0938,5.7344 -6.2539,12.488 -6.2539,19.531 v 5.3359 c 0,18.527 15.066,33.594 33.59,33.594 9.5977,0 18.848,-4.0234 25.383,-11.051 l 213.75,-229.57 c -1.4336,-0.95312 -2.793,-2.0664 -4.0352,-3.3086 z"
         id="path7733"
         style="fill:#4cd5ff;fill-opacity:1;stroke-width:5.8739" />
      <path
         d="m 352.56,211.06 c -1.6523,1.6523 -2.5625,3.8594 -2.5625,6.1953 v 29.25 c 0,2.3359 0.91016,4.543 2.5625,6.1953 l 24.746,24.746 c 1.6523,1.6445 3.8594,2.5547 6.1953,2.5547 h 29.25 c 2.3359,0 4.543,-0.91016 6.1953,-2.5625 l 102.43,-102.44 -66.379,-66.379 z"
         id="path7735"
         style="fill:#4cd5ff;fill-opacity:1;stroke-width:5.8739" />
      <path
         d="m 590.84,43.215 -4.0703,-4.0703 c -8.3203,-8.3086 -19.379,-12.895 -31.148,-12.895 -11.769,0 -22.828,4.5859 -31.16,12.906 l -4.5938,4.5938 66.379,66.379 4.5938,-4.5938 c 8.3203,-8.332 12.906,-19.391 12.906,-31.16 0,-11.769 -4.5859,-22.828 -12.906,-31.16 z"
         id="path7737"
         style="fill:#4cd5ff;fill-opacity:1;stroke-width:5.8739" />
      <path
         d="m 467.37,96.25 13.879,-13.879 66.375,66.375 -13.879,13.879 z"
         id="path7739"
         style="fill:#4cd5ff;fill-opacity:1;stroke-width:5.8739" />
      <path
         d="m 493.62,70 13.879,-13.879 66.375,66.375 -13.879,13.879 z"
         id="path7741"
         style="fill:#4cd5ff;fill-opacity:1;stroke-width:5.8739" />
    </g>
  </g>
</svg>
