<svg xmlns="http://www.w3.org/2000/svg" xmlns:xlink="http://www.w3.org/1999/xlink" width="519" zoomAndPan="magnify" viewBox="0 0 389.25 407.249985" height="543" preserveAspectRatio="xMidYMid meet" version="1.0"><defs><clipPath id="9a8213e4cb"><path d="M 80.835938 89.835938 L 307.648438 89.835938 L 307.648438 316.648438 L 80.835938 316.648438 Z M 80.835938 89.835938 " clip-rule="nonzero"/></clipPath></defs><g clip-path="url(#9a8213e4cb)"><path fill="#e1e3e8" d="M 307.648438 203.242188 C 307.648438 205.097656 307.605469 206.953125 307.511719 208.808594 C 307.421875 210.660156 307.285156 212.511719 307.105469 214.359375 C 306.921875 216.207031 306.695312 218.046875 306.421875 219.882812 C 306.148438 221.71875 305.832031 223.546875 305.46875 225.367188 C 305.109375 227.1875 304.703125 229 304.25 230.796875 C 303.800781 232.597656 303.304688 234.386719 302.765625 236.164062 C 302.226562 237.9375 301.644531 239.703125 301.019531 241.449219 C 300.394531 243.195312 299.726562 244.925781 299.015625 246.640625 C 298.308594 248.355469 297.554688 250.054688 296.761719 251.730469 C 295.96875 253.410156 295.132812 255.066406 294.257812 256.703125 C 293.382812 258.339844 292.46875 259.953125 291.515625 261.546875 C 290.5625 263.136719 289.566406 264.707031 288.539062 266.25 C 287.507812 267.792969 286.4375 269.308594 285.332031 270.800781 C 284.226562 272.289062 283.085938 273.753906 281.90625 275.1875 C 280.730469 276.621094 279.519531 278.027344 278.273438 279.402344 C 277.027344 280.777344 275.746094 282.121094 274.433594 283.433594 C 273.121094 284.746094 271.777344 286.027344 270.402344 287.273438 C 269.027344 288.519531 267.621094 289.730469 266.1875 290.90625 C 264.753906 292.085938 263.289062 293.226562 261.800781 294.332031 C 260.308594 295.4375 258.792969 296.507812 257.25 297.539062 C 255.707031 298.566406 254.136719 299.5625 252.546875 300.515625 C 250.953125 301.46875 249.339844 302.382812 247.703125 303.257812 C 246.066406 304.132812 244.410156 304.96875 242.730469 305.761719 C 241.054688 306.554688 239.355469 307.308594 237.640625 308.015625 C 235.925781 308.726562 234.195312 309.394531 232.449219 310.019531 C 230.703125 310.644531 228.9375 311.226562 227.164062 311.765625 C 225.386719 312.304688 223.597656 312.800781 221.796875 313.25 C 220 313.703125 218.1875 314.109375 216.367188 314.46875 C 214.546875 314.832031 212.71875 315.148438 210.882812 315.421875 C 209.046875 315.695312 207.207031 315.921875 205.359375 316.105469 C 203.511719 316.285156 201.660156 316.421875 199.808594 316.511719 C 197.953125 316.605469 196.097656 316.648438 194.242188 316.648438 C 192.386719 316.648438 190.53125 316.605469 188.679688 316.511719 C 186.824219 316.421875 184.972656 316.285156 183.128906 316.105469 C 181.28125 315.921875 179.4375 315.695312 177.601562 315.421875 C 175.765625 315.148438 173.9375 314.832031 172.117188 314.46875 C 170.296875 314.109375 168.488281 313.703125 166.6875 313.25 C 164.886719 312.800781 163.097656 312.304688 161.324219 311.765625 C 159.546875 311.226562 157.785156 310.644531 156.039062 310.019531 C 154.289062 309.394531 152.558594 308.726562 150.84375 308.015625 C 149.128906 307.308594 147.433594 306.554688 145.753906 305.761719 C 144.078125 304.96875 142.421875 304.132812 140.785156 303.257812 C 139.148438 302.382812 137.53125 301.46875 135.941406 300.515625 C 134.347656 299.5625 132.78125 298.566406 131.238281 297.539062 C 129.695312 296.507812 128.179688 295.4375 126.6875 294.332031 C 125.195312 293.226562 123.734375 292.085938 122.300781 290.90625 C 120.863281 289.730469 119.460938 288.519531 118.085938 287.273438 C 116.707031 286.027344 115.363281 284.746094 114.050781 283.433594 C 112.742188 282.121094 111.460938 280.777344 110.214844 279.402344 C 108.96875 278.027344 107.757812 276.621094 106.578125 275.1875 C 105.402344 273.753906 104.261719 272.289062 103.152344 270.800781 C 102.046875 269.308594 100.980469 267.792969 99.949219 266.25 C 98.917969 264.707031 97.925781 263.136719 96.972656 261.546875 C 96.015625 259.953125 95.101562 258.339844 94.226562 256.703125 C 93.351562 255.066406 92.519531 253.410156 91.726562 251.730469 C 90.929688 250.054688 90.179688 248.355469 89.46875 246.640625 C 88.757812 244.925781 88.089844 243.195312 87.464844 241.449219 C 86.839844 239.703125 86.257812 237.9375 85.71875 236.164062 C 85.179688 234.386719 84.6875 232.597656 84.234375 230.796875 C 83.785156 229 83.378906 227.1875 83.015625 225.367188 C 82.652344 223.546875 82.335938 221.71875 82.0625 219.882812 C 81.792969 218.046875 81.566406 216.207031 81.382812 214.359375 C 81.199219 212.511719 81.0625 210.660156 80.972656 208.808594 C 80.882812 206.953125 80.835938 205.097656 80.835938 203.242188 C 80.835938 201.386719 80.882812 199.53125 80.972656 197.679688 C 81.0625 195.824219 81.199219 193.972656 81.382812 192.128906 C 81.566406 190.28125 81.792969 188.4375 82.0625 186.601562 C 82.335938 184.765625 82.652344 182.9375 83.015625 181.117188 C 83.378906 179.296875 83.785156 177.488281 84.234375 175.6875 C 84.6875 173.886719 85.179688 172.097656 85.71875 170.324219 C 86.257812 168.546875 86.839844 166.785156 87.464844 165.039062 C 88.089844 163.289062 88.757812 161.558594 89.46875 159.84375 C 90.179688 158.128906 90.929688 156.433594 91.726562 154.753906 C 92.519531 153.078125 93.351562 151.421875 94.226562 149.785156 C 95.101562 148.148438 96.015625 146.53125 96.972656 144.941406 C 97.925781 143.347656 98.917969 141.78125 99.949219 140.238281 C 100.980469 138.695312 102.046875 137.179688 103.152344 135.6875 C 104.261719 134.195312 105.402344 132.734375 106.578125 131.300781 C 107.757812 129.863281 108.96875 128.460938 110.214844 127.085938 C 111.460938 125.707031 112.742188 124.363281 114.050781 123.050781 C 115.363281 121.742188 116.707031 120.460938 118.085938 119.214844 C 119.460938 117.96875 120.863281 116.757812 122.300781 115.578125 C 123.734375 114.402344 125.195312 113.261719 126.6875 112.152344 C 128.179688 111.046875 129.695312 109.980469 131.238281 108.949219 C 132.78125 107.917969 134.347656 106.925781 135.941406 105.972656 C 137.53125 105.015625 139.148438 104.101562 140.785156 103.226562 C 142.421875 102.351562 144.078125 101.519531 145.753906 100.726562 C 147.433594 99.929688 149.128906 99.179688 150.84375 98.46875 C 152.558594 97.757812 154.289062 97.089844 156.039062 96.464844 C 157.785156 95.839844 159.546875 95.257812 161.324219 94.71875 C 163.097656 94.179688 164.886719 93.6875 166.6875 93.234375 C 168.488281 92.785156 170.296875 92.378906 172.117188 92.015625 C 173.9375 91.652344 175.765625 91.335938 177.601562 91.0625 C 179.4375 90.792969 181.28125 90.566406 183.128906 90.382812 C 184.972656 90.199219 186.824219 90.0625 188.679688 89.972656 C 190.53125 89.882812 192.386719 89.835938 194.242188 89.835938 C 196.097656 89.835938 197.953125 89.882812 199.808594 89.972656 C 201.660156 90.0625 203.511719 90.199219 205.359375 90.382812 C 207.207031 90.566406 209.046875 90.792969 210.882812 91.0625 C 212.71875 91.335938 214.546875 91.652344 216.367188 92.015625 C 218.1875 92.378906 220 92.785156 221.796875 93.234375 C 223.597656 93.6875 225.386719 94.179688 227.164062 94.71875 C 228.9375 95.257812 230.703125 95.839844 232.449219 96.464844 C 234.195312 97.089844 235.925781 97.757812 237.640625 98.46875 C 239.355469 99.179688 241.054688 99.929688 242.730469 100.726562 C 244.410156 101.519531 246.066406 102.351562 247.703125 103.226562 C 249.339844 104.101562 250.953125 105.015625 252.546875 105.972656 C 254.136719 106.925781 255.707031 107.917969 257.25 108.949219 C 258.792969 109.980469 260.308594 111.046875 261.800781 112.152344 C 263.289062 113.261719 264.753906 114.402344 266.1875 115.578125 C 267.621094 116.757812 269.027344 117.96875 270.402344 119.214844 C 271.777344 120.460938 273.121094 121.742188 274.433594 123.050781 C 275.746094 124.363281 277.027344 125.707031 278.273438 127.085938 C 279.519531 128.460938 280.730469 129.863281 281.90625 131.300781 C 283.085938 132.734375 284.226562 134.195312 285.332031 135.6875 C 286.4375 137.179688 287.507812 138.695312 288.539062 140.238281 C 289.566406 141.78125 290.5625 143.347656 291.515625 144.941406 C 292.46875 146.53125 293.382812 148.148438 294.257812 149.785156 C 295.132812 151.421875 295.96875 153.078125 296.761719 154.753906 C 297.554688 156.433594 298.308594 158.128906 299.015625 159.84375 C 299.726562 161.558594 300.394531 163.289062 301.019531 165.039062 C 301.644531 166.785156 302.226562 168.546875 302.765625 170.324219 C 303.304688 172.097656 303.800781 173.886719 304.25 175.6875 C 304.703125 177.488281 305.109375 179.296875 305.46875 181.117188 C 305.832031 182.9375 306.148438 184.765625 306.421875 186.601562 C 306.695312 188.4375 306.921875 190.28125 307.105469 192.128906 C 307.285156 193.972656 307.421875 195.824219 307.511719 197.679688 C 307.605469 199.53125 307.648438 201.386719 307.648438 203.242188 Z M 307.648438 203.242188 " fill-opacity="1" fill-rule="nonzero"/></g><path fill="#ba3f4d" d="M 96.195312 173.886719 L 260.265625 109.796875 C 263.164062 108.664062 266.453125 110.109375 267.585938 113.007812 L 303.066406 203.859375 C 304.199219 206.753906 302.753906 210.046875 299.859375 211.175781 L 135.789062 275.257812 C 132.898438 276.390625 129.601562 274.945312 128.476562 272.046875 L 92.988281 181.195312 C 91.855469 178.308594 93.300781 175.007812 96.195312 173.886719 Z M 96.195312 173.886719 " fill-opacity="1" fill-rule="evenodd"/><path fill="#ff576b" d="M 95.449219 171.96875 L 259.519531 107.890625 C 262.414062 106.757812 265.707031 108.203125 266.835938 111.097656 L 302.320312 201.949219 C 303.449219 204.839844 302.007812 208.136719 299.117188 209.269531 L 135.046875 273.351562 C 132.152344 274.480469 128.859375 273.039062 127.730469 270.140625 L 92.238281 179.289062 C 91.117188 176.402344 92.558594 173.101562 95.449219 171.96875 Z M 95.449219 171.96875 " fill-opacity="1" fill-rule="evenodd"/><path fill="#ffffff" d="M 114.722656 185.03125 L 161.960938 166.578125 L 164.710938 173.617188 L 117.472656 192.070312 Z M 114.722656 185.03125 " fill-opacity="1" fill-rule="evenodd"/><path fill="#ffffff" d="M 176.027344 161.085938 L 199.648438 151.859375 L 202.398438 158.898438 L 178.777344 168.125 Z M 176.027344 161.085938 " fill-opacity="1" fill-rule="evenodd"/><path fill="#ffffff" d="M 122.769531 205.632812 L 195.164062 177.355469 L 197.914062 184.394531 L 125.519531 212.671875 Z M 122.769531 205.632812 " fill-opacity="1" fill-rule="evenodd"/><path fill="#ffffff" d="M 216.722656 168.9375 L 252.921875 154.796875 L 255.671875 161.835938 L 219.472656 175.972656 Z M 216.722656 168.9375 " fill-opacity="1" fill-rule="evenodd"/><path fill="#4288c7" d="M 117.378906 172.226562 L 293.519531 172.226562 C 296.632812 172.226562 299.171875 174.769531 299.171875 177.878906 L 299.171875 275.417969 C 299.171875 278.519531 296.632812 281.0625 293.519531 281.0625 L 117.378906 281.0625 C 114.277344 281.0625 111.734375 278.519531 111.734375 275.417969 L 111.734375 177.878906 C 111.734375 174.769531 114.277344 172.226562 117.378906 172.226562 Z M 117.378906 172.226562 " fill-opacity="1" fill-rule="evenodd"/><path fill="#53b4ed" d="M 117.378906 170.179688 L 293.519531 170.179688 C 296.632812 170.179688 299.171875 172.71875 299.171875 175.828125 L 299.171875 273.367188 C 299.171875 276.46875 296.632812 279.011719 293.519531 279.011719 L 117.378906 279.011719 C 114.277344 279.011719 111.734375 276.46875 111.734375 273.367188 L 111.734375 175.828125 C 111.734375 172.71875 114.277344 170.179688 117.378906 170.179688 Z M 117.378906 170.179688 " fill-opacity="1" fill-rule="evenodd"/><path fill="#0e4275" d="M 111.734375 182.132812 L 299.171875 182.132812 L 299.171875 205.890625 L 111.734375 205.890625 Z M 111.734375 182.132812 " fill-opacity="1" fill-rule="evenodd"/><path fill="#18528c" d="M 175.671875 182.132812 L 236.320312 182.132812 L 211.804688 205.890625 L 151.15625 205.890625 Z M 251.949219 182.132812 L 270.332031 182.132812 L 245.808594 205.890625 L 227.425781 205.890625 Z M 251.949219 182.132812 " fill-opacity="1" fill-rule="evenodd"/><path fill="#18528c" d="M 120.222656 241.453125 L 204.859375 241.453125 L 204.859375 244.839844 L 120.222656 244.839844 Z M 120.222656 241.453125 " fill-opacity="1" fill-rule="evenodd"/><path fill="#18528c" d="M 120.222656 251.480469 L 177.199219 251.480469 L 177.199219 254.871094 L 120.222656 254.871094 Z M 120.222656 251.480469 " fill-opacity="1" fill-rule="evenodd"/><path fill="#18528c" d="M 120.222656 261.511719 L 189.980469 261.511719 L 189.980469 264.898438 L 120.222656 264.898438 Z M 120.222656 261.511719 " fill-opacity="1" fill-rule="evenodd"/><path fill="#18528c" d="M 188.074219 251.480469 L 219.738281 251.480469 L 219.738281 254.871094 L 188.074219 254.871094 Z M 188.074219 251.480469 " fill-opacity="1" fill-rule="evenodd"/><path fill="#ecf0f1" d="M 120.222656 211.980469 L 290.683594 211.980469 L 290.683594 226.484375 L 120.222656 226.484375 Z M 120.222656 211.980469 " fill-opacity="1" fill-rule="evenodd"/><path fill="#bac1cf" d="M 198.40625 215.910156 L 281.714844 215.910156 L 281.714844 222.75 L 198.40625 222.75 Z M 198.40625 215.910156 " fill-opacity="1" fill-rule="evenodd"/><path fill="#ecf0f1" d="M 247.617188 236.183594 C 257.003906 236.183594 264.609375 243.789062 264.609375 253.175781 C 264.609375 262.5625 257.003906 270.175781 247.617188 270.175781 C 238.230469 270.175781 230.617188 262.5625 230.617188 253.175781 C 230.617188 243.789062 238.230469 236.183594 247.617188 236.183594 Z M 247.617188 236.183594 " fill-opacity="1" fill-rule="evenodd"/><path fill="#ecf0f1" d="M 268.664062 236.183594 C 278.050781 236.183594 285.65625 243.789062 285.65625 253.175781 C 285.65625 262.5625 278.050781 270.175781 268.664062 270.175781 C 259.277344 270.175781 251.664062 262.5625 251.664062 253.175781 C 251.664062 243.789062 259.277344 236.183594 268.664062 236.183594 Z M 268.664062 236.183594 " fill-opacity="1" fill-rule="evenodd"/><path fill="#ffc42e" d="M 268.664062 238.429688 C 276.8125 238.429688 283.410156 245.027344 283.410156 253.175781 C 283.410156 261.324219 276.8125 267.929688 268.664062 267.929688 C 260.515625 267.929688 253.910156 261.324219 253.910156 253.175781 C 253.910156 245.027344 260.515625 238.429688 268.664062 238.429688 Z M 268.664062 238.429688 " fill-opacity="1" fill-rule="evenodd"/><path fill="#fab812" d="M 260.660156 265.566406 C 256.59375 262.9375 253.910156 258.371094 253.910156 253.175781 C 253.910156 247.988281 256.59375 243.414062 260.648438 240.792969 C 263.71875 244.011719 265.597656 248.378906 265.597656 253.175781 C 265.597656 257.980469 263.71875 262.339844 260.660156 265.566406 Z M 260.660156 265.566406 " fill-opacity="1" fill-rule="evenodd"/><path fill="#ff8527" d="M 247.617188 238.429688 C 255.757812 238.429688 262.363281 245.027344 262.363281 253.175781 C 262.363281 261.324219 255.757812 267.929688 247.617188 267.929688 C 239.46875 267.929688 232.863281 261.324219 232.863281 253.175781 C 232.863281 245.027344 239.46875 238.429688 247.617188 238.429688 Z M 247.617188 238.429688 " fill-opacity="1" fill-rule="evenodd"/><path fill="#eaa43a" d="M 162.300781 274.035156 C 162.300781 275.308594 162.238281 276.578125 162.113281 277.84375 C 161.988281 279.113281 161.800781 280.371094 161.554688 281.617188 C 161.304688 282.867188 160.996094 284.097656 160.628906 285.316406 C 160.257812 286.535156 159.832031 287.730469 159.34375 288.90625 C 158.855469 290.082031 158.3125 291.234375 157.710938 292.355469 C 157.113281 293.476562 156.460938 294.566406 155.753906 295.625 C 155.046875 296.683594 154.289062 297.707031 153.480469 298.6875 C 152.671875 299.671875 151.820312 300.613281 150.917969 301.515625 C 150.019531 302.414062 149.078125 303.269531 148.09375 304.074219 C 147.109375 304.882812 146.089844 305.640625 145.03125 306.347656 C 143.972656 307.054688 142.882812 307.707031 141.757812 308.308594 C 140.636719 308.90625 139.488281 309.453125 138.3125 309.9375 C 137.136719 310.425781 135.9375 310.855469 134.722656 311.222656 C 133.503906 311.59375 132.269531 311.902344 131.023438 312.148438 C 129.773438 312.398438 128.515625 312.585938 127.25 312.710938 C 125.984375 312.835938 124.714844 312.898438 123.441406 312.898438 C 122.167969 312.898438 120.898438 312.835938 119.632812 312.710938 C 118.367188 312.585938 117.109375 312.398438 115.859375 312.148438 C 114.613281 311.902344 113.378906 311.59375 112.160156 311.222656 C 110.941406 310.855469 109.746094 310.425781 108.570312 309.9375 C 107.394531 309.453125 106.246094 308.90625 105.121094 308.308594 C 104 307.707031 102.910156 307.054688 101.851562 306.347656 C 100.792969 305.640625 99.773438 304.882812 98.789062 304.074219 C 97.804688 303.269531 96.863281 302.414062 95.960938 301.515625 C 95.0625 300.613281 94.210938 299.671875 93.402344 298.6875 C 92.59375 297.707031 91.835938 296.683594 91.128906 295.625 C 90.421875 294.566406 89.769531 293.476562 89.167969 292.355469 C 88.570312 291.234375 88.027344 290.082031 87.539062 288.90625 C 87.050781 287.730469 86.625 286.535156 86.253906 285.316406 C 85.886719 284.097656 85.574219 282.867188 85.328125 281.617188 C 85.078125 280.371094 84.894531 279.113281 84.769531 277.84375 C 84.644531 276.578125 84.582031 275.308594 84.582031 274.035156 C 84.582031 272.765625 84.644531 271.492188 84.769531 270.226562 C 84.894531 268.960938 85.078125 267.703125 85.328125 266.457031 C 85.574219 265.207031 85.886719 263.972656 86.253906 262.757812 C 86.625 261.539062 87.050781 260.339844 87.539062 259.164062 C 88.027344 257.988281 88.570312 256.839844 89.167969 255.71875 C 89.769531 254.59375 90.421875 253.503906 91.128906 252.445312 C 91.835938 251.390625 92.59375 250.367188 93.402344 249.382812 C 94.210938 248.398438 95.0625 247.457031 95.960938 246.558594 C 96.863281 245.660156 97.804688 244.804688 98.789062 243.996094 C 99.773438 243.191406 100.792969 242.433594 101.851562 241.726562 C 102.910156 241.019531 104 240.363281 105.121094 239.765625 C 106.246094 239.164062 107.394531 238.621094 108.570312 238.132812 C 109.746094 237.648438 110.941406 237.21875 112.160156 236.851562 C 113.378906 236.480469 114.613281 236.171875 115.859375 235.921875 C 117.109375 235.675781 118.367188 235.488281 119.632812 235.363281 C 120.898438 235.238281 122.167969 235.175781 123.441406 235.175781 C 124.714844 235.175781 125.984375 235.238281 127.25 235.363281 C 128.515625 235.488281 129.773438 235.675781 131.023438 235.921875 C 132.269531 236.171875 133.503906 236.480469 134.722656 236.851562 C 135.9375 237.21875 137.136719 237.648438 138.3125 238.132812 C 139.488281 238.621094 140.636719 239.164062 141.757812 239.765625 C 142.882812 240.363281 143.972656 241.019531 145.03125 241.726562 C 146.089844 242.433594 147.109375 243.191406 148.09375 243.996094 C 149.078125 244.804688 150.019531 245.660156 150.917969 246.558594 C 151.820312 247.457031 152.671875 248.398438 153.480469 249.382812 C 154.289062 250.367188 155.046875 251.390625 155.753906 252.445312 C 156.460938 253.503906 157.113281 254.59375 157.710938 255.71875 C 158.3125 256.839844 158.855469 257.988281 159.34375 259.164062 C 159.832031 260.339844 160.257812 261.539062 160.628906 262.757812 C 160.996094 263.972656 161.304688 265.207031 161.554688 266.457031 C 161.800781 267.703125 161.988281 268.960938 162.113281 270.226562 C 162.238281 271.492188 162.300781 272.765625 162.300781 274.035156 Z M 162.300781 274.035156 " fill-opacity="1" fill-rule="nonzero"/><path fill="#ffc42e" d="M 155.214844 274.035156 C 155.214844 275.078125 155.164062 276.113281 155.0625 277.152344 C 154.957031 278.1875 154.804688 279.214844 154.601562 280.234375 C 154.398438 281.253906 154.148438 282.265625 153.84375 283.257812 C 153.542969 284.253906 153.195312 285.234375 152.796875 286.195312 C 152.398438 287.15625 151.953125 288.097656 151.460938 289.015625 C 150.972656 289.933594 150.4375 290.824219 149.859375 291.6875 C 149.28125 292.554688 148.660156 293.386719 148 294.191406 C 147.339844 294.996094 146.644531 295.765625 145.90625 296.503906 C 145.171875 297.238281 144.402344 297.9375 143.597656 298.597656 C 142.792969 299.257812 141.957031 299.875 141.09375 300.453125 C 140.226562 301.03125 139.335938 301.566406 138.417969 302.058594 C 137.5 302.546875 136.5625 302.992188 135.601562 303.390625 C 134.636719 303.789062 133.660156 304.140625 132.664062 304.441406 C 131.667969 304.742188 130.660156 304.996094 129.640625 305.199219 C 128.617188 305.402344 127.589844 305.554688 126.554688 305.65625 C 125.519531 305.757812 124.480469 305.808594 123.441406 305.808594 C 122.402344 305.808594 121.363281 305.757812 120.328125 305.65625 C 119.292969 305.554688 118.261719 305.402344 117.242188 305.199219 C 116.222656 304.996094 115.214844 304.742188 114.21875 304.441406 C 113.222656 304.140625 112.242188 303.789062 111.28125 303.390625 C 110.320312 302.992188 109.382812 302.546875 108.464844 302.058594 C 107.546875 301.566406 106.65625 301.03125 105.789062 300.453125 C 104.925781 299.875 104.089844 299.257812 103.285156 298.597656 C 102.480469 297.9375 101.710938 297.238281 100.972656 296.503906 C 100.238281 295.765625 99.539062 294.996094 98.878906 294.191406 C 98.21875 293.386719 97.601562 292.554688 97.023438 291.6875 C 96.445312 290.824219 95.910156 289.933594 95.421875 289.015625 C 94.929688 288.097656 94.484375 287.15625 94.085938 286.195312 C 93.6875 285.234375 93.339844 284.253906 93.035156 283.257812 C 92.734375 282.265625 92.480469 281.253906 92.277344 280.234375 C 92.074219 279.214844 91.921875 278.1875 91.820312 277.152344 C 91.71875 276.113281 91.667969 275.078125 91.667969 274.035156 C 91.667969 272.996094 91.71875 271.957031 91.820312 270.921875 C 91.921875 269.886719 92.074219 268.859375 92.277344 267.835938 C 92.480469 266.816406 92.734375 265.808594 93.035156 264.8125 C 93.339844 263.816406 93.6875 262.839844 94.085938 261.878906 C 94.484375 260.917969 94.929688 259.976562 95.421875 259.058594 C 95.910156 258.140625 96.445312 257.25 97.023438 256.382812 C 97.601562 255.519531 98.21875 254.683594 98.878906 253.878906 C 99.539062 253.074219 100.238281 252.304688 100.972656 251.570312 C 101.710938 250.832031 102.480469 250.136719 103.285156 249.476562 C 104.089844 248.816406 104.925781 248.195312 105.789062 247.617188 C 106.65625 247.039062 107.546875 246.507812 108.464844 246.015625 C 109.382812 245.523438 110.320312 245.082031 111.28125 244.683594 C 112.242188 244.285156 113.222656 243.933594 114.21875 243.632812 C 115.214844 243.328125 116.222656 243.078125 117.242188 242.875 C 118.261719 242.671875 119.292969 242.519531 120.328125 242.417969 C 121.363281 242.316406 122.402344 242.265625 123.441406 242.265625 C 124.480469 242.265625 125.519531 242.316406 126.554688 242.417969 C 127.589844 242.519531 128.617188 242.671875 129.640625 242.875 C 130.660156 243.078125 131.667969 243.328125 132.664062 243.632812 C 133.660156 243.933594 134.636719 244.285156 135.601562 244.683594 C 136.5625 245.082031 137.5 245.523438 138.417969 246.015625 C 139.335938 246.507812 140.226562 247.039062 141.09375 247.617188 C 141.957031 248.195312 142.792969 248.816406 143.597656 249.476562 C 144.402344 250.136719 145.171875 250.832031 145.90625 251.570312 C 146.644531 252.304688 147.339844 253.074219 148 253.878906 C 148.660156 254.683594 149.28125 255.519531 149.859375 256.382812 C 150.4375 257.25 150.972656 258.140625 151.460938 259.058594 C 151.953125 259.976562 152.398438 260.917969 152.796875 261.878906 C 153.195312 262.839844 153.542969 263.816406 153.84375 264.8125 C 154.148438 265.808594 154.398438 266.816406 154.601562 267.835938 C 154.804688 268.859375 154.957031 269.886719 155.0625 270.921875 C 155.164062 271.957031 155.214844 272.996094 155.214844 274.035156 Z M 155.214844 274.035156 " fill-opacity="1" fill-rule="nonzero"/><path fill="#eaa43a" d="M 123.261719 299.425781 L 123.261719 294.640625 C 120.875 294.34375 118.929688 293.808594 117.433594 293.035156 C 115.945312 292.265625 114.652344 291.011719 113.5625 289.296875 C 112.476562 287.578125 111.851562 285.484375 111.664062 282.996094 L 116.460938 282.070312 C 116.828125 284.652344 117.484375 286.554688 118.421875 287.757812 C 119.769531 289.460938 121.382812 290.414062 123.261719 290.609375 L 123.261719 275.585938 C 121.292969 275.078125 119.285156 274.242188 117.234375 273.089844 C 115.710938 272.246094 114.542969 271.066406 113.714844 269.5625 C 112.894531 268.046875 112.484375 266.34375 112.484375 264.425781 C 112.484375 261.03125 113.6875 258.265625 116.09375 256.152344 C 117.699219 254.746094 120.089844 253.871094 123.261719 253.550781 L 123.261719 251.269531 L 126.089844 251.269531 L 126.089844 253.550781 C 128.851562 253.816406 131.054688 254.636719 132.675781 256.011719 C 134.753906 257.75 136.003906 260.148438 136.429688 263.1875 L 131.527344 263.945312 C 131.25 262.054688 130.664062 260.59375 129.761719 259.585938 C 128.871094 258.570312 127.648438 257.910156 126.089844 257.578125 L 126.089844 271.371094 C 128.496094 271.984375 130.082031 272.46875 130.859375 272.796875 C 132.347656 273.449219 133.550781 274.25 134.488281 275.195312 C 135.429688 276.132812 136.144531 277.246094 136.652344 278.539062 C 137.152344 279.832031 137.410156 281.230469 137.410156 282.738281 C 137.410156 286.054688 136.359375 288.808594 134.253906 291.027344 C 132.152344 293.25 129.421875 294.425781 126.089844 294.585938 L 126.089844 299.425781 Z M 123.261719 257.527344 C 121.410156 257.8125 119.9375 258.550781 118.875 259.765625 C 117.808594 260.976562 117.273438 262.394531 117.273438 264.042969 C 117.273438 265.683594 117.726562 267.046875 118.636719 268.144531 C 119.546875 269.242188 121.078125 270.078125 123.261719 270.640625 Z M 126.089844 290.609375 C 127.953125 290.386719 129.484375 289.574219 130.699219 288.191406 C 131.902344 286.8125 132.507812 285.101562 132.507812 283.066406 C 132.507812 281.328125 132.089844 279.9375 131.222656 278.878906 C 130.359375 277.824219 128.648438 276.96875 126.089844 276.308594 Z M 126.089844 290.609375 " fill-opacity="1" fill-rule="evenodd"/><path fill="#ed7d27" d="M 122.15625 298.117188 L 122.15625 293.328125 C 119.777344 293.035156 117.832031 292.5 116.335938 291.722656 C 114.839844 290.957031 113.554688 289.699219 112.46875 287.988281 C 111.378906 286.269531 110.753906 284.171875 110.566406 281.683594 L 115.355469 280.757812 C 115.730469 283.34375 116.378906 285.242188 117.324219 286.445312 C 118.671875 288.148438 120.285156 289.101562 122.15625 289.296875 L 122.15625 274.277344 C 120.195312 273.769531 118.191406 272.929688 116.140625 271.78125 C 114.617188 270.933594 113.449219 269.757812 112.617188 268.25 C 111.796875 266.734375 111.386719 265.03125 111.386719 263.117188 C 111.386719 259.71875 112.589844 256.957031 115 254.84375 C 116.601562 253.433594 118.992188 252.558594 122.15625 252.238281 L 122.15625 249.957031 L 124.992188 249.957031 L 124.992188 252.238281 C 127.757812 252.507812 129.949219 253.328125 131.570312 254.699219 C 133.65625 256.4375 134.90625 258.835938 135.332031 261.875 L 130.429688 262.632812 C 130.152344 260.746094 129.566406 259.28125 128.664062 258.273438 C 127.773438 257.257812 126.550781 256.597656 124.992188 256.269531 L 124.992188 270.058594 C 127.398438 270.675781 128.984375 271.15625 129.761719 271.488281 C 131.25 272.136719 132.453125 272.941406 133.390625 273.886719 C 134.335938 274.820312 135.046875 275.933594 135.554688 277.226562 C 136.054688 278.519531 136.3125 279.921875 136.3125 281.425781 C 136.3125 284.742188 135.261719 287.496094 133.160156 289.71875 C 131.046875 291.929688 128.328125 293.113281 124.992188 293.273438 L 124.992188 298.117188 Z M 122.15625 256.214844 C 120.3125 256.492188 118.839844 257.242188 117.78125 258.453125 C 116.710938 259.664062 116.175781 261.082031 116.175781 262.730469 C 116.175781 264.371094 116.628906 265.738281 117.539062 266.832031 C 118.441406 267.929688 119.980469 268.769531 122.15625 269.328125 Z M 124.992188 289.296875 C 126.847656 289.074219 128.378906 288.265625 129.601562 286.882812 C 130.804688 285.5 131.410156 283.789062 131.410156 281.757812 C 131.410156 280.019531 130.984375 278.628906 130.128906 277.566406 C 129.261719 276.515625 127.550781 275.660156 124.992188 275 Z M 124.992188 289.296875 " fill-opacity="1" fill-rule="evenodd"/></svg>