<svg xmlns="http://www.w3.org/2000/svg" xmlns:xlink="http://www.w3.org/1999/xlink" width="519" zoomAndPan="magnify" viewBox="0 0 389.25 407.249985" height="543" preserveAspectRatio="xMidYMid meet" version="1.0"><defs><clipPath id="1acbfac5ad"><path d="M 280 150 L 363.804688 150 L 363.804688 259 L 280 259 Z M 280 150 " clip-rule="nonzero"/></clipPath><clipPath id="3142478458"><path d="M 127 118.480469 L 351 118.480469 L 351 259 L 127 259 Z M 127 118.480469 " clip-rule="nonzero"/></clipPath><clipPath id="cf225610ac"><path d="M 144 230 L 343 230 L 343 287.652344 L 144 287.652344 Z M 144 230 " clip-rule="nonzero"/></clipPath><clipPath id="0610fdfa35"><path d="M 24.707031 138 L 248 138 L 248 211 L 24.707031 211 Z M 24.707031 138 " clip-rule="nonzero"/></clipPath></defs><g clip-path="url(#1acbfac5ad)"><path fill="#ffbaba" d="M 363.800781 258.625 L 280.859375 258.625 L 280.859375 150.894531 L 334.027344 150.894531 L 363.800781 196.164062 Z M 363.800781 258.625 " fill-opacity="1" fill-rule="nonzero"/></g><g clip-path="url(#3142478458)"><path fill="#ff5252" d="M 280.859375 258.625 L 127.183594 258.625 L 127.183594 118.480469 L 280.859375 118.480469 Z M 350.234375 196.230469 L 330.363281 166.050781 L 294.898438 166.050781 L 294.898438 196.230469 Z M 309.613281 202.929688 L 294.898438 202.929688 L 294.898438 209.699219 L 309.613281 209.699219 Z M 309.613281 202.929688 " fill-opacity="1" fill-rule="nonzero"/></g><g clip-path="url(#cf225610ac)"><path fill="#a70000" d="M 342.164062 258.894531 C 342.164062 274.796875 329.28125 287.652344 313.34375 287.652344 C 297.40625 287.652344 284.453125 274.796875 284.453125 258.894531 C 284.453125 242.992188 297.339844 230.132812 313.273438 230.132812 C 329.210938 230.132812 342.164062 242.992188 342.164062 258.894531 Z M 172.894531 230.066406 C 156.957031 230.066406 144.070312 242.921875 144.070312 258.824219 C 144.070312 274.730469 156.957031 287.585938 172.894531 287.585938 C 188.832031 287.585938 201.714844 274.730469 201.714844 258.824219 C 201.714844 242.921875 188.832031 230.066406 172.894531 230.066406 Z M 172.894531 230.066406 " fill-opacity="1" fill-rule="nonzero"/></g><path fill="#ff5252" d="M 329.550781 258.894531 C 329.550781 267.828125 322.292969 275.132812 313.273438 275.132812 C 304.324219 275.132812 297 267.894531 297 258.894531 C 297 249.960938 304.253906 242.652344 313.273438 242.652344 C 322.292969 242.652344 329.550781 249.894531 329.550781 258.894531 Z M 172.894531 242.652344 C 163.941406 242.652344 156.617188 249.894531 156.617188 258.894531 C 156.617188 267.828125 163.875 275.132812 172.894531 275.132812 C 181.847656 275.132812 189.171875 267.894531 189.171875 258.894531 C 189.171875 249.894531 181.914062 242.652344 172.894531 242.652344 Z M 172.894531 242.652344 " fill-opacity="1" fill-rule="nonzero"/><g clip-path="url(#0610fdfa35)"><path fill="#ffbaba" d="M 183.066406 185 L 172.894531 185 L 204.699219 138.035156 L 214.871094 138.035156 Z M 231.148438 138.035156 L 220.976562 138.035156 L 189.171875 185 L 199.34375 185 Z M 247.425781 138.035156 L 237.253906 138.035156 L 205.445312 185 L 215.617188 185 Z M 163.738281 150.894531 C 163.738281 150.148438 163.128906 149.605469 162.449219 149.605469 L 58.824219 149.605469 C 58.078125 149.605469 57.539062 150.214844 57.539062 150.894531 C 57.539062 151.570312 58.148438 152.179688 58.824219 152.179688 L 162.382812 152.179688 C 163.128906 152.179688 163.738281 151.636719 163.738281 150.894531 Z M 153.226562 177.554688 C 153.226562 176.8125 152.617188 176.269531 151.9375 176.269531 L 86.292969 176.269531 C 85.546875 176.269531 85.003906 176.878906 85.003906 177.554688 C 85.003906 178.230469 85.613281 178.839844 86.292969 178.839844 L 151.9375 178.839844 C 152.617188 178.910156 153.226562 178.300781 153.226562 177.554688 Z M 180.285156 209.699219 C 180.285156 208.953125 179.675781 208.414062 178.996094 208.414062 L 26.003906 208.414062 C 25.257812 208.414062 24.714844 209.019531 24.714844 209.699219 C 24.714844 210.375 25.324219 210.984375 26.003906 210.984375 L 178.996094 210.984375 C 179.742188 210.984375 180.285156 210.375 180.285156 209.699219 Z M 180.285156 209.699219 " fill-opacity="1" fill-rule="nonzero"/></g></svg>