<svg xmlns="http://www.w3.org/2000/svg" xmlns:xlink="http://www.w3.org/1999/xlink" width="519" zoomAndPan="magnify" viewBox="0 0 389.25 407.249985" height="543" preserveAspectRatio="xMidYMid meet" version="1.0"><defs><clipPath id="2a6d2c89f9"><path d="M 119 232 L 293 232 L 293 323.117188 L 119 323.117188 Z M 119 232 " clip-rule="nonzero"/></clipPath><clipPath id="05216326dc"><path d="M 119 258 L 293 258 L 293 323.117188 L 119 323.117188 Z M 119 258 " clip-rule="nonzero"/></clipPath><clipPath id="e29110657c"><path d="M 74.578125 237 L 124 237 L 124 320 L 74.578125 320 Z M 74.578125 237 " clip-rule="nonzero"/></clipPath><clipPath id="ba791ea1d8"><path d="M 74.578125 237 L 124 237 L 124 320 L 74.578125 320 Z M 74.578125 237 " clip-rule="nonzero"/></clipPath><clipPath id="0918b4de0c"><path d="M 220 83.578125 L 314.117188 83.578125 L 314.117188 253 L 220 253 Z M 220 83.578125 " clip-rule="nonzero"/></clipPath></defs><path fill="#ffca28" d="M 235.515625 109.738281 C 206.609375 109.738281 183.136719 133.246094 183.136719 162.15625 C 183.136719 191.046875 206.609375 214.554688 235.515625 214.554688 C 264.40625 214.554688 287.917969 191.046875 287.917969 162.15625 C 287.917969 133.246094 264.40625 109.738281 235.515625 109.738281 " fill-opacity="1" fill-rule="nonzero"/><path fill="#e4eff8" d="M 231.871094 140.65625 C 225.496094 142.3125 220.917969 147.925781 220.917969 154.613281 C 220.917969 158.84375 222.808594 162.058594 226.355469 163.8125 C 229.300781 165.277344 233.121094 165.546875 235.089844 165.761719 C 238.597656 166.132812 240.273438 166.425781 241.425781 166.992188 C 242.574219 167.554688 242.828125 168.335938 242.828125 169.660156 C 242.828125 173.578125 239.609375 176.679688 235.613281 176.738281 C 232.105469 176.5625 229.648438 174.652344 228.421875 170.734375 C 226.960938 166.09375 219.980469 168.257812 221.441406 172.917969 C 223.003906 177.90625 226.492188 182.078125 231.871094 183.523438 L 231.871094 187.675781 C 231.871094 192.527344 239.164062 192.566406 239.164062 187.675781 L 239.164062 183.601562 C 245.5 182 250.117188 176.347656 250.117188 169.660156 C 250.117188 165.429688 248.265625 162.214844 244.660156 160.441406 C 241.890625 159.078125 238.636719 158.804688 235.90625 158.511719 C 233.179688 158.21875 230.957031 157.925781 229.589844 157.265625 C 228.460938 156.699219 228.226562 155.957031 228.226562 154.613281 C 228.226562 150.695312 231.40625 147.574219 235.382812 147.535156 C 238.929688 147.671875 241.40625 149.621094 242.632812 153.539062 C 244.289062 158.140625 250.878906 156.054688 249.613281 151.355469 C 248.050781 146.367188 244.621094 142.234375 239.164062 140.753906 L 239.164062 136.640625 C 239.183594 134.574219 237.523438 132.976562 235.480469 132.992188 C 233.453125 133.011719 231.832031 134.613281 231.871094 136.640625 L 231.871094 140.65625 " fill-opacity="1" fill-rule="nonzero"/><g clip-path="url(#2a6d2c89f9)"><path fill="#ffc6a0" d="M 291.40625 258.164062 C 288.871094 251.417969 281.328125 248.164062 274.640625 250.484375 L 219.765625 269.46875 C 218.910156 265.472656 216.492188 261.808594 212.691406 259.625 L 173.839844 237.1875 C 173.839844 237.1875 166.140625 232.683594 153.175781 232.683594 C 143.546875 232.683594 132.589844 237.96875 119.492188 245.570312 C 119.433594 268.125 119.492188 286.683594 119.492188 307.25 C 119.492188 307.25 120.210938 307.230469 120.582031 307.152344 C 125.691406 306.058594 134.890625 304.402344 141.929688 304.402344 C 145.378906 304.402344 151.382812 308.339844 158.285156 313.078125 C 165.203125 317.832031 173.371094 323.117188 183.136719 323.117188 C 189.394531 323.117188 197.71875 319.859375 208.050781 315.320312 C 218.382812 310.777344 230.273438 304.753906 241.5625 298.75 C 264.054688 286.78125 284 274.945312 284.171875 274.832031 C 290.042969 271.75 293.941406 264.90625 291.40625 258.164062 " fill-opacity="1" fill-rule="nonzero"/></g><path fill="#ffaf7a" d="M 119.492188 245.570312 C 119.433594 268.125 119.492188 286.664062 119.492188 307.25 C 119.492188 307.25 120.210938 307.230469 120.582031 307.152344 C 123.175781 306.585938 126.820312 305.902344 130.71875 305.335938 L 130.71875 244.515625 C 130.71875 242.898438 130.171875 241.417969 129.277344 240.171875 C 126.15625 241.789062 122.902344 243.601562 119.492188 245.570312 " fill-opacity="1" fill-rule="nonzero"/><g clip-path="url(#05216326dc)"><path fill="#ffaf7a" d="M 241.5625 291.261719 C 230.273438 297.265625 218.382812 303.289062 208.050781 307.832031 C 197.71875 312.394531 189.394531 315.628906 183.136719 315.628906 C 173.371094 315.628906 165.203125 310.347656 158.285156 305.589844 C 151.382812 300.855469 145.378906 296.917969 141.929688 296.917969 C 134.890625 296.917969 125.691406 298.574219 120.582031 299.664062 C 120.230469 299.722656 119.863281 299.761719 119.511719 299.722656 C 119.511719 300.660156 119.492188 304.402344 119.492188 307.25 C 119.824219 307.25 120.210938 307.230469 120.582031 307.152344 C 125.691406 306.058594 134.890625 304.402344 141.929688 304.402344 C 145.378906 304.402344 151.382812 308.339844 158.285156 313.097656 C 165.203125 317.832031 173.371094 323.117188 183.136719 323.117188 C 189.394531 323.117188 197.71875 319.878906 208.050781 315.320312 C 218.382812 310.777344 230.273438 304.753906 241.5625 298.75 C 264.054688 286.78125 284 274.945312 284.171875 274.832031 C 289.886719 271.828125 293.667969 265.277344 291.542969 258.707031 C 290.390625 262.375 287.664062 265.511719 284.171875 267.34375 C 284 267.460938 264.054688 279.292969 241.5625 291.261719 " fill-opacity="1" fill-rule="nonzero"/></g><path fill="#ffaf7a" d="M 178.945312 266.058594 C 174.660156 263.679688 170.992188 270.015625 175.203125 272.550781 L 197.71875 285.53125 C 204.835938 289.644531 214.054688 287.1875 218.167969 280.074219 C 221.34375 274.539062 220.546875 267.773438 216.6875 263.09375 C 219.164062 266.546875 219.550781 271.261719 217.269531 275.199219 C 214.171875 280.582031 207.328125 282.414062 201.714844 279.195312 L 178.945312 266.058594 " fill-opacity="1" fill-rule="nonzero"/><g clip-path="url(#e29110657c)"><path fill="#549ad4" d="M 82.0625 237.011719 C 77.988281 237.011719 74.578125 240.425781 74.578125 244.515625 L 74.578125 311.867188 C 74.578125 315.941406 77.988281 319.355469 82.0625 319.355469 L 115.75 319.355469 C 119.824219 319.355469 123.234375 315.941406 123.234375 311.867188 L 123.234375 244.515625 C 123.234375 240.425781 119.824219 237.011719 115.75 237.011719 L 82.0625 237.011719 " fill-opacity="1" fill-rule="nonzero"/></g><path fill="#e4eff8" d="M 93.292969 304.402344 C 93.292969 306.46875 91.613281 308.144531 89.546875 308.144531 C 87.484375 308.144531 85.804688 306.46875 85.804688 304.402344 C 85.804688 302.335938 87.484375 300.660156 89.546875 300.660156 C 91.613281 300.660156 93.292969 302.335938 93.292969 304.402344 " fill-opacity="1" fill-rule="nonzero"/><g clip-path="url(#ba791ea1d8)"><path fill="#3588cb" d="M 89.546875 311.867188 C 85.476562 311.867188 82.0625 308.457031 82.0625 304.382812 L 82.0625 237.011719 C 77.988281 237.011719 74.578125 240.425781 74.578125 244.515625 L 74.578125 311.867188 C 74.578125 315.941406 77.988281 319.355469 82.0625 319.355469 L 115.75 319.355469 C 119.824219 319.355469 123.234375 315.941406 123.234375 311.867188 L 89.546875 311.867188 " fill-opacity="1" fill-rule="nonzero"/></g><path fill="#ecb200" d="M 202.457031 121.53125 C 190.664062 131.160156 183.136719 145.78125 183.136719 162.15625 C 183.136719 191.046875 206.609375 214.554688 235.515625 214.554688 C 251.871094 214.554688 266.492188 207.03125 276.101562 195.257812 C 267.078125 202.644531 255.558594 207.070312 243.003906 207.070312 C 214.09375 207.070312 190.625 183.5625 190.625 154.671875 C 190.625 142.117188 195.066406 130.578125 202.457031 121.53125 " fill-opacity="1" fill-rule="nonzero"/><path fill="#e4eff8" d="M 218.441406 129.269531 C 217.855469 129.308594 217.308594 129.464844 216.804688 129.777344 C 210.625 133.34375 205.613281 138.589844 202.320312 144.90625 C 200.039062 149.425781 206.667969 152.761719 208.96875 148.375 C 211.597656 143.304688 215.613281 139.09375 220.566406 136.230469 C 224.015625 134.203125 222.398438 129.035156 218.441406 129.269531 " fill-opacity="1" fill-rule="nonzero"/><path fill="#e4eff8" d="M 198.324219 158.042969 C 198.167969 159.40625 198.109375 160.773438 198.109375 162.15625 C 198.109375 167.148438 205.59375 167.148438 205.59375 162.15625 C 205.59375 161.046875 205.652344 159.953125 205.789062 158.863281 C 206.082031 156.464844 204.054688 154.457031 201.65625 154.730469 C 199.882812 154.90625 198.5 156.269531 198.324219 158.042969 " fill-opacity="1" fill-rule="nonzero"/><g clip-path="url(#0918b4de0c)"><path fill="#549ad4" d="M 235.515625 233.269531 L 233.335938 233.269531 L 238.167969 228.453125 C 240.527344 226.097656 238.8125 221.925781 235.382812 222.0625 C 234.40625 222.101562 233.527344 222.449219 232.867188 223.152344 L 221.636719 234.378906 C 220.175781 235.84375 220.175781 238.203125 221.636719 239.683594 L 232.867188 250.890625 C 236.472656 254.363281 241.617188 249.175781 238.167969 245.609375 L 233.296875 240.753906 L 235.515625 240.753906 C 278.871094 240.753906 314.117188 205.589844 314.117188 162.15625 C 314.117188 118.726562 278.890625 83.578125 235.515625 83.578125 C 235.402344 83.578125 235.285156 83.578125 235.148438 83.578125 C 230.507812 84.085938 230.703125 90.984375 235.515625 91.0625 C 274.816406 91.0625 306.628906 122.914062 306.628906 162.15625 C 306.628906 201.398438 274.816406 233.269531 235.515625 233.269531 " fill-opacity="1" fill-rule="nonzero"/></g></svg>